<?xml version="1.0" encoding="UTF-8"?>
<svg id="Camada_2" data-name="Camada 2" xmlns="http://www.w3.org/2000/svg" viewBox="0 0 67.09 65.91">
  <defs>
    <style>
      .cls-1 {
        fill: #6b7280;
        stroke-width: 0px;
      }
    </style>
  </defs>
  <g id="Camada_1-2" data-name="Camada 1">
    <path class="cls-1" d="M65.15,33.51l-14.58-1.88c5.06-2.93,8.48-8.4,8.48-14.67C59.04,7.59,51.45,0,42.08,0s-16.92,7.56-16.96,16.89c-1.76-.46-3.88.9-5.81.9s-4.18-1.45-5.97-.87c-1.86.6-2.77,3.08-4.32,4.21-1.56,1.14-4.2,1.25-5.34,2.81-1.13,1.55-.43,4.08-1.03,5.94-.58,1.79-2.66,3.43-2.66,5.41s2.08,3.62,2.66,5.41c.6,1.86-.1,4.4,1.03,5.94,1.14,1.56,3.77,1.67,5.33,2.81,1.55,1.13,2.46,3.61,4.32,4.21,1.79.58,3.98-.87,5.97-.87s4.18,1.45,5.97.87c1.86-.6,2.77-3.08,4.32-4.21.82-.6,1.94-.92,2.99-1.31l-1.5,11.63c-.16,1.22.7,2.34,1.93,2.5l27.95,3.61c1.22.16,2.34-.7,2.5-1.93l3.61-27.95c.16-1.22-.7-2.34-1.93-2.5Z"/>
  </g>
</svg>