<?xml version="1.0" encoding="UTF-8"?>
<svg id="Camada_2" data-name="Camada 2" xmlns="http://www.w3.org/2000/svg" viewBox="0 0 51.89 51.89">
  <defs>
    <style>
      .cls-1 {
        fill: #000;
        stroke-width: 0px;
      }
    </style>
  </defs>
  <g id="Camada_1-2" data-name="Camada 1">
    <g>
      <path class="cls-1" d="M25.08.01C11.73.45.7,11.26.03,24.6c-.24,4.81.82,9.36,2.88,13.3L.02,50.88c-.12.59.4,1.11.98.98l12.98-2.9h0c3.92,2.05,8.42,3.11,13.19,2.89,13.32-.62,24.17-11.56,24.68-24.88C52.45,11.88,40.15-.48,25.08.01ZM25.94,46.52c-3.78,0-7.31-1.02-10.35-2.8-.29-.16-.56-.33-.83-.51l-8.29,2.21,2.21-8.29c-2.09-3.22-3.31-7.06-3.31-11.18C5.37,14.6,14.6,5.37,25.94,5.37s20.58,9.23,20.58,20.58-9.23,20.58-20.58,20.58Z"/>
      <path class="cls-1" d="M38.15,35c-.36.54-.74,1.04-1.34,1.64-1.32,1.32-3.15,1.98-5,1.79-3.33-.34-8.05-2.18-12.12-6.23-4.06-4.06-5.9-8.79-6.23-12.12-.19-1.86.48-3.69,1.79-5,.6-.6,1.1-.98,1.64-1.35,1-.67,2.35-.22,2.73.91l1.36,4.09c.38,1.12.21,1.83-.28,2.31l-1.09,1.09c-.54.54-.63,1.37-.22,2.02.6.94,1.73,2.45,3.81,4.53,2.08,2.08,3.59,3.21,4.53,3.81.65.41,1.48.32,2.02-.22l1.09-1.09c.48-.48,1.18-.65,2.31-.28l4.09,1.36c1.13.38,1.58,1.73.9,2.73Z"/>
    </g>
  </g>
</svg>