<?xml version="1.0" encoding="UTF-8"?>
<svg id="Camada_2" data-name="Camada 2" xmlns="http://www.w3.org/2000/svg" viewBox="0 0 57.14 57.14">
  <defs>
    <style>
      .cls-1 {
        fill: #000;
        stroke-width: 0px;
      }
    </style>
  </defs>
  <g id="Camada_1-2" data-name="Camada 1">
    <g>
      <path class="cls-1" d="M43.35,0H13.79C6.18,0,0,6.18,0,13.79v29.55c0,7.62,6.18,13.79,13.79,13.79h29.55c7.62,0,13.79-6.18,13.79-13.79V13.79c0-7.62-6.18-13.79-13.79-13.79ZM52.21,42.36c0,5.44-4.41,9.85-9.85,9.85H14.78c-5.44,0-9.85-4.41-9.85-9.85V14.78c0-5.44,4.41-9.85,9.85-9.85h27.58c5.44,0,9.85,4.41,9.85,9.85v27.58Z"/>
      <path class="cls-1" d="M28.57,13.79c-8.16,0-14.78,6.62-14.78,14.78s6.62,14.78,14.78,14.78,14.78-6.62,14.78-14.78-6.62-14.78-14.78-14.78ZM28.57,38.42c-5.43,0-9.85-4.42-9.85-9.85s4.42-9.85,9.85-9.85,9.85,4.42,9.85,9.85-4.42,9.85-9.85,9.85Z"/>
      <circle class="cls-1" cx="44.33" cy="12.81" r="2.96"/>
    </g>
  </g>
</svg>